<svg xmlns="http://www.w3.org/2000/svg" viewBox="0 0 180 180"><rect width="180" height="180" fill="#0033ff"/><path d="M37.788 148.916C40.273 149.902 42.758 149.423 45.244 147.100C47.736 144.768 50.221 140.571 52.706 134.656C55.192 128.741 57.677 121.118 60.162 112.480C62.648 103.842 65.140 94.209 67.625 84.663C70.110 75.117 72.596 65.689 75.081 57.529C77.566 49.369 80.052 42.498 82.544 37.803C85.029 33.108 87.515 30.600 90.000 30.600C92.485 30.600 94.970 33.108 97.456 37.803C99.948 42.498 102.433 49.369 104.919 57.529C107.404 65.689 109.889 75.117 112.374 84.663C114.860 94.209 117.352 103.842 119.837 112.480C122.322 121.118 124.808 128.741 127.293 134.656C129.778 140.571 132.263 144.768 134.756 147.100C137.241 149.423 139.726 149.902 142.212 148.916" fill="none" stroke="#f9f9f8" stroke-width="16.200" stroke-linecap="round" stroke-linejoin="round"/></svg>
